<!-- icon666.com - MILLIONS vector ICONS FREE --><svg version="1.1" id="Capa_1" xmlns="http://www.w3.org/2000/svg" xmlns:xlink="http://www.w3.org/1999/xlink" x="0px" y="0px" viewBox="0 0 511.996 511.996" style="enable-background:new 0 0 511.996 511.996;" xml:space="preserve"><g><g><g><path d="M442.641,75.504c-7.439-5.14-17.639-3.311-22.806,4.128c-5.158,7.439-3.311,17.648,4.128,22.806 c37.782,26.206,57.339,58.342,55.075,90.496c-1.9,27.094-19.424,51.515-46.899,65.337l-58.22,29.3 c-8.257-22.365-9.014-43.274-2.225-62.332c14.976-42.025,61.848-63.357,62.283-63.553c8.274-3.649,12.038-13.316,8.389-21.599 c-3.657-8.291-13.325-12.038-21.599-8.398c-2.441,1.074-59.966,26.934-79.852,82.266c-9.951,27.693-8.73,57.375,3.571,88.427 l-77.289,38.896c-0.05,0.025-0.101,0.042-0.151,0.067c-0.048,0.024-0.092,0.055-0.14,0.079l-44.958,22.625 c-0.003,0.001-0.005,0.002-0.008,0.003c-0.003,0.001-0.005,0.003-0.007,0.004l-118.461,59.616 c-29.34,14.772-53.069,7.714-63.553-5.823c-13.929-18.012-7.466-47.272,16.459-74.534c9.514-10.845,21.669-24.18,35.063-38.61 l29.44,31.552c3.222,3.462,7.599,5.211,11.984,5.211c4.004,0,8.016-1.456,11.177-4.403c6.614-6.17,6.978-16.547,0.799-23.161 l-30.962-33.184c4.412-4.684,8.869-9.401,13.333-14.111l34.407,36.909c3.231,3.462,7.608,5.211,11.993,5.211 c3.995,0,8.007-1.456,11.168-4.412c6.622-6.17,6.978-16.538,0.808-23.152l-35.74-38.338c4.556-4.768,9.039-9.449,13.41-14.005 l39.109,41.912c3.222,3.462,7.599,5.211,11.984,5.211c4.004,0,8.016-1.456,11.177-4.412c6.614-6.17,6.978-16.547,0.799-23.161 l-40.31-43.2c12.422-12.87,22.673-23.432,29.098-30.038c33.112,10.342,67.805,7.626,101.015-8.016 c42.922-20.214,80.828-62.212,94.331-104.504c2.761-8.62-1.997-17.843-10.626-20.595c-8.602-2.752-17.843,1.997-20.595,10.626 c-8.789,27.502-36.646,65.781-77.073,84.823c-19.734,9.295-50.556,17.453-85.364,3.498c-6.17-2.477-13.192-0.985-17.826,3.755 c-0.871,0.897-65.783,67.4-119.153,124.396c-0.306,0.307-0.606,0.617-0.882,0.942c-18.105,19.345-34.829,37.545-47.195,51.641 c-42.229,48.115-35.953,92.679-17.746,116.204c0.589,0.761,1.208,1.485,1.823,2.215c-4.954,2.818-8.304,8.133-8.304,14.244 c0,9.055,7.333,16.396,16.388,16.396h332.216c9.055,0,16.396-7.342,16.396-16.396c0-9.055-7.342-16.388-16.396-16.388H214.534 c1.776-4.259,1.767-9.232-0.467-13.671l-7.862-15.641l15.822-7.962l7.86,15.623c2.885,5.726,8.655,9.037,14.656,9.037 c2.477,0,4.989-0.577,7.35-1.758c8.087-4.066,11.345-13.92,7.279-22.007l-7.864-15.632L267.133,378l7.851,15.615 c2.885,5.726,8.655,9.028,14.656,9.028c2.468,0,4.98-0.559,7.368-1.758c8.078-4.066,11.336-13.929,7.271-22.007l-7.857-15.618 l75.908-38.201c0.302-0.131,0.602-0.271,0.9-0.422c0.167-0.084,0.32-0.185,0.483-0.274l15.263-7.681l7.859,15.626 c2.876,5.726,8.655,9.028,14.656,9.028c2.468,0,4.98-0.559,7.35-1.749c8.078-4.066,11.336-13.92,7.271-22.007l-7.858-15.633 l15.831-7.967l7.855,15.619c2.876,5.726,8.655,9.037,14.656,9.037c2.468,0,4.98-0.568,7.359-1.758 c8.078-4.066,11.336-13.92,7.271-22.007l-8.444-16.79c28.687-19.931,46.63-49.85,48.951-82.849 C514.84,151.086,490.294,108.563,442.641,75.504z M184.25,437.974H147.96l28.964-14.576L184.25,437.974z" fill="#000000" style="fill: rgb(255, 183, 3);"></path><path d="M435.388,437.974h-29.73c-9.055,0-16.388,7.333-16.388,16.388c0,9.055,7.333,16.396,16.388,16.396h29.73 c9.046,0,16.396-7.342,16.396-16.396C451.785,445.307,444.443,437.974,435.388,437.974z" fill="#000000" style="fill: rgb(255, 183, 3);"></path></g></g></g></svg>