<!-- icon666.com - MILLIONS vector ICONS FREE --><svg id="Capa_1" enable-background="new 0 0 512.227 512.227" viewBox="0 0 512.227 512.227" xmlns="http://www.w3.org/2000/svg"><g><path d="m487.998 353.217c72.861-137.648-27.381-304.786-183.627-304.786-42.076 0-82.598 12.517-117.186 36.197-3.418 2.34-4.291 7.008-1.951 10.425 2.341 3.417 7.007 4.292 10.426 1.952 16.491-11.29 34.438-19.844 53.289-25.492l-15.209 26.013-58.33 42.38-29.475 6.434c7.016-10.071 15.053-19.553 24.061-28.32 2.969-2.889 3.033-7.637.145-10.605-2.889-2.967-7.637-3.033-10.606-.144-39.71 38.649-61.938 90.181-62.816 145.436l-20.192-28.269c-5.925-8.295-15.584-13.361-25.982-13.361-3.479.002-6.701 1.912-8.408 4.982l-20.987 37.773c-22.612 40.712-27.829 89.618-12.073 135.675.037.12.078.239.121.356 4.661 13.529 11.057 26.437 19.011 38.367.273.411.587.793.937 1.143l1.591 1.591c1.406 1.407 3.314 2.197 5.304 2.197h2.644l17.859 26.79c1.607 2.408 4.297 3.846 7.192 3.846h26.383c2.896 0 5.584-1.438 7.194-3.851l17.857-26.786h6.347l17.859 26.79c1.607 2.408 4.297 3.846 7.192 3.846h26.383c2.896 0 5.585-1.438 7.195-3.851l17.215-25.823c6.517 3.915 13.251 7.474 20.157 10.655.432.251.887.459 1.358.62 14.296 6.462 29.308 11.313 44.632 14.377l.117.176c1.607 2.408 4.297 3.846 7.192 3.846h26.383c.408 0 .812-.029 1.21-.084 16.12.455 32.18-.941 47.801-4.135l.249.373c1.607 2.408 4.296 3.846 7.191 3.846h26.383c2.896 0 5.585-1.438 7.195-3.851l13.051-19.577c2.569-1.34 5.124-2.742 7.632-4.186h5.192l15.836 23.754c1.606 2.417 4.298 3.859 7.2 3.859h26.383c2.896 0 5.585-1.438 7.195-3.851l15.856-23.783c6.952-.276 13.447-3.113 18.395-8.061 5.214-5.213 8.085-12.145 8.084-19.517v-13.633c.001-17.292-9.171-33.12-24.055-41.733zm-13.233-7.061c-5.51-2.924-11.557-6.135-18.028-9.571l20.252-62.331 20.018-22.478c.714 32.233-6.622 64.85-22.242 94.38zm-112.42-51.424-13.219 22.895-10.921-6.306 13.885-24.05 10.922 6.306c-.696 1.206-.661 1.146-.667 1.155zm-61.042-4.716-10.922-6.306 13.885-24.05 10.922 6.306zm-97.252-47.68-5.005-16.682c-.218-.728-.136-1.491.2-2.137.024-.042.047-.084.07-.126.767-1.309 2.434-1.811 3.807-1.084l14.829 7.866zm-91.804 28.536c-.492-6.492-.647-12.831-.51-19.097l20.019 22.479 1.951 6.003c-7.858-1.33-15.225-4.584-21.46-9.385zm37.247 9.434-2.849-8.768 31.705-48.524 5.571 1.81c.001 1.711.248 3.44.758 5.139l6.968 23.226-18.033 15.779c-6.87 6.011-15.261 9.898-24.12 11.338zm85.938-57.84-25.28-13.409c-6.363-3.375-14.159-2.651-19.824 2.079l-7.342-2.386 2.872-57.893 55.068-40.01 55.946 15.159v62.239l-50.419 36.632c-3.482-1.695-7.266-2.485-11.021-2.411zm68.939-21.131 52.062 37.824-9.111 28.039-14.535-8.392c-1.269-.733-2.621-1.198-3.989-1.415-.872-1.076-1.951-2.014-3.221-2.747l-16.7-9.642c-1.252-.723-2.601-1.199-3.987-1.422-.886-1.089-1.973-2.019-3.225-2.741l-16.702-9.643c-2.697-1.558-5.84-1.97-8.85-1.165-3.009.806-5.524 2.736-7.081 5.434l-.616 1.067-7.213-3.834zm-24.016 44.521 10.921 6.305-13.886 24.05-10.921-6.306zm47.824 27.611 10.921 6.305-13.886 24.05-10.921-6.306zm38.388-45.486-54.695-39.738v-62.239l55.947-15.159 55.068 40.01 2.872 57.893zm74.356-16.274-2.747-55.391 35.427 7.733c11.131 20.379 18.688 42.979 21.822 66.949l-24.167 27.135zm21.698-65.408-29.287-6.392-58.333-42.382-15.178-25.962c42.122 12.679 78.214 39.417 102.798 74.736zm-123.043-79.645 18.322 31.339-53.528 14.503-53.528-14.503 18.334-31.359c23.124-4.263 47.162-4.288 70.4.02zm-169.01 89.662-2.747 55.391-30.335 46.427-24.188-27.16c3.05-23.635 10.395-46.227 21.658-66.884zm-136.306 104.8 19.315-34.767c4.287.781 8.167 3.203 10.74 6.807l25.89 36.245c21.679 30.352 65.022 35.585 93.283 10.856 12.477-10.917 35.962-31.466 46.348-40.553 2.845-2.489 6.994-2.97 10.33-1.199 7.754 4.121 12.937 6.876 20.744 11.025l-9.103 15.766c-3.215 5.569-1.3 12.715 4.27 15.932l16.701 9.643h.001c1.269.733 2.621 1.199 3.99 1.416.872 1.076 1.951 2.014 3.22 2.747l16.7 9.642c1.255.725 2.607 1.202 3.996 1.424.871 1.073 1.948 2.009 3.215 2.74l16.702 9.643c1.252.723 2.6 1.2 3.986 1.422.886 1.089 1.972 2.018 3.224 2.741l16.702 9.643c5.589 3.227 12.727 1.277 15.932-4.27l11.308-19.587 7.513 3.991c3.645 1.937 8.192.565 10.142-3.104 1.943-3.658.554-8.199-3.104-10.143l-7.428-3.946c1.242-4.856-.781-10.263-5.477-12.973l-12.799-7.39 10.599-32.619 59.192-19.232 31.705 48.524-18.814 57.904c-8.084-4.293-16.635-8.835-25.475-13.531-3.658-1.942-8.199-.552-10.143 3.105-1.942 3.658-.553 8.199 3.105 10.142 19.236 10.217 49.239 26.153 68.624 36.438 10.485 5.562 17.146 16.194 17.629 27.979h-155.03l-41.604-41.604c-17.685-17.685-41.197-27.424-66.207-27.424h-90.97c-23.517 0-46.729-7.902-65.36-22.25l-46.454-35.775c.92-1.825 1.877-3.632 2.862-5.408zm52.456 187.681h-19.583l-10.424-15.636h40.432zm82.834 0h-19.584l-10.424-15.636h4.533c11.213 0 22.293-1.798 32.933-5.344 2.518-.839 5.032-1.564 7.397-2.153.128.091.257.182.385.272zm124.25 0h-19.584l-11.688-17.531c13.279 2.104 26.675 3.537 40.099 4.29zm-86.339-26.126c7.406-.099 14.83.62 22.128 2.163l2.518.533-10.674 4.683c-4.755-2.269-9.418-4.73-13.972-7.379zm33.209 15.319 6.433-2.822 4.128 6.193c-3.55-1.021-7.072-2.145-10.561-3.371zm71.256 10.66 8.332-12.497c3.093.036 4.726.028 10.354.028l6.557 9.835c-8.315 1.425-16.749 2.306-25.243 2.634zm64.707.147h-19.583c-2.877-4.315-6.718-10.078-8.41-12.615l36.403.001zm82.489 0h-19.583l-8.409-12.613 36.4.001zm34.24-31.302c-2.38 2.38-5.544 3.69-8.91 3.69-27.615-.001-127.389-.004-159.588-.005-36.325-.002-60.635-4.35-92.171-11.022-20.073-4.245-40.947-3.067-60.429 3.427-9.105 3.035-18.589 4.575-28.188 4.575-39.977 0-83.965 0-104.536 0-4.808-7.43-8.959-15.261-12.404-23.392h14.788c4.143 0 7.5-3.358 7.5-7.5s-3.357-7.5-7.5-7.5h-20.238c-9.981-32.668-8.748-67.353 3.459-99.127l43.554 33.54c21.241 16.357 47.703 25.365 74.513 25.365h90.97c21.003 0 40.749 8.179 55.6 23.03l30.998 30.998h-20.203l-25.846-25.846c-10.04-10.041-23.39-15.57-37.59-15.57h-94.991c-31.768 0-63.258-10.497-88.672-29.557l-13.812-10.36c-3.312-2.486-8.015-1.814-10.5 1.5-2.485 3.313-1.813 8.015 1.5 10.5l13.812 10.36c27.993 20.995 62.681 32.557 97.672 32.557h94.991c10.193 0 19.775 3.969 26.983 11.177l15.24 15.24h-11.585c-14.6 0-23.629-3.573-31.46-5.25-22.706-5.677-46.087-8.556-69.491-8.556h-89.903c-4.143 0-7.5 3.358-7.5 7.5s3.357 7.5 7.5 7.5h89.902c22.179 0 44.335 2.728 65.853 8.108 7.584 1.605 18.228 5.698 35.099 5.698h229.273c0 3.466-1.372 6.602-3.69 8.92z" fill="#000000" style="fill: rgb(255, 183, 3);"></path></g></svg>