<!-- icon666.com - MILLIONS vector ICONS FREE --><svg id="Layer_1" viewBox="0 0 512 512" xmlns="http://www.w3.org/2000/svg" data-name="Layer 1"><path d="m378.224 291.047a5.992 5.992 0 0 0 4.826-2.429c1.417-1.913 2.805-3.893 4.126-5.886a6 6 0 1 0 -10-6.63c-1.207 1.819-2.474 3.627-3.768 5.374a6 6 0 0 0 4.817 9.571z" fill="#000000" style="fill: rgb(255, 183, 3);"></path><path d="m392.373 261.337a6 6 0 0 0 7.807-3.322 140.162 140.162 0 0 0 4.94-89.607 6 6 0 0 0 -11.558 3.226 128.1 128.1 0 0 1 -4.512 81.9 6 6 0 0 0 3.323 7.803z" fill="#000000" style="fill: rgb(255, 183, 3);"></path><path d="m240.925 419.3a6 6 0 0 0 .451 8.473l49.556 44.554a6 6 0 0 0 8.023-8.924l-49.555-44.554a6 6 0 0 0 -8.475.451z" fill="#000000" style="fill: rgb(255, 183, 3);"></path><path d="m333.063 426.989a6 6 0 0 0 .45 8.474l58.166 52.295a6 6 0 0 0 8.023-8.924l-58.166-52.3a6 6 0 0 0 -8.473.455z" fill="#000000" style="fill: rgb(255, 183, 3);"></path><path d="m312.052 400.031a6 6 0 0 0 -8.023 8.924l15.751 14.161a6 6 0 0 0 8.023-8.924z" fill="#000000" style="fill: rgb(255, 183, 3);"></path><path d="m484.051 398.184a6 6 0 1 0 8.023-8.924l-6.989-6.283a6 6 0 1 0 -8.023 8.923z" fill="#000000" style="fill: rgb(255, 183, 3);"></path><path d="m395.8 310.771a6 6 0 0 0 .45 8.473l67.165 60.386a6 6 0 0 0 8.023-8.924l-67.165-60.386a6 6 0 0 0 -8.473.451z" fill="#000000" style="fill: rgb(255, 183, 3);"></path><path d="m469.172 291.078a6 6 0 0 0 4.013-10.462l-38.849-34.927a6 6 0 1 0 -8.023 8.923l38.849 34.928a5.983 5.983 0 0 0 4.01 1.538z" fill="#000000" style="fill: rgb(255, 183, 3);"></path><path d="m491.93 497.528a6 6 0 1 0 8.14-8.816l-12.951-11.957a6 6 0 0 0 -8.14 8.816z" fill="#000000" style="fill: rgb(255, 183, 3);"></path><path d="m469.172 474.354a6 6 0 0 0 4.072-10.409l-112.35-103.723a6 6 0 1 0 -8.14 8.816l112.346 103.724a5.98 5.98 0 0 0 4.072 1.592z" fill="#000000" style="fill: rgb(255, 183, 3);"></path><path d="m196.919 386.162c103.068 0 186.92-83.727 186.92-186.641s-83.852-186.641-186.92-186.641a185.959 185.959 0 0 0 -91.471 23.927 6 6 0 1 0 5.833 10.493 174.08 174.08 0 0 1 28.128-12.706l53.605 32.7.086 60.306-58.584 42.5-67.729-10.868-14.167-58.3a175.951 175.951 0 0 1 18.535-22.651 6 6 0 1 0 -8.594-8.373 185.851 185.851 0 0 0 -52.561 129.613c0 102.914 83.852 186.641 186.919 186.641zm0-12a175.1 175.1 0 0 1 -38.165-4.2l-30.532-66.362 34.92-47.137h71.569l35.38 58.42-30.745 54.079a174.934 174.934 0 0 1 -42.427 5.2zm59.112-10.273 24.834-43.682 50.215-8.758a175.6 175.6 0 0 1 -75.049 52.44zm85.674-66.475-61.649 10.752-35.408-58.466 22.093-67.891 66.83-9.848 37.789 40.478a173.392 173.392 0 0 1 -29.655 84.975zm30.081-102.1-29.432-31.526 9.925-44.451a173.254 173.254 0 0 1 19.507 75.976zm-28.41-91.169-12.524 56.089-67.122 9.891-58.63-42.531-.088-60.444 49.53-32.522a175.764 175.764 0 0 1 88.834 69.516zm-188.471-74.16a175.494 175.494 0 0 1 84.625.145l-40.639 26.685zm44.2 108.085 56.024 40.641-21.395 65.747h-69.257l-21.4-65.747zm-155.352-22.813 11.525 47.429-33.237 33.6a173.282 173.282 0 0 1 21.712-81.029zm-21.246 97.623 41.493-41.942 67.46 10.823 22 67.612-35.213 47.527-66.093.541a173.384 173.384 0 0 1 -29.647-84.561zm94.95 96.029 26.208 56.968a175.515 175.515 0 0 1 -82.62-56.507z" fill="#000000" style="fill: rgb(255, 183, 3);"></path></svg>